<svg width="20" height="21" viewBox="0 0 20 21" fill="none" xmlns="http://www.w3.org/2000/svg">
<path d="M18.0699 3.54634H13.7077L12.7929 1.196C12.6806 0.907585 12.4494 0.725098 12.1964 0.725098H8.90189C8.64882 0.725098 8.41771 0.907585 8.30545 1.196L7.39051 3.54634H1.9301C0.865859 3.54634 0 4.64734 0 6.0008V18.2706C0 19.624 0.865859 20.7251 1.9301 20.7251H18.0699C19.1341 20.7251 20 19.624 20 18.2706V6.0008C20 4.64734 19.1341 3.54634 18.0699 3.54634ZM9.31502 2.41784H11.7831L12.2224 3.54634H8.87576L9.31502 2.41784ZM18.0699 5.23908C18.4002 5.23908 18.669 5.58076 18.669 6.00089V7.73593H16.2192C15.2058 6.60333 13.8795 5.91576 12.4294 5.91576C10.9793 5.91576 9.65286 6.60333 8.63953 7.73593H1.33111V6.0008C1.33111 5.58076 1.5998 5.23899 1.93017 5.23899H18.0699V5.23908ZM12.4294 18.908C9.98882 18.908 8.00323 16.3735 8.00323 13.2582C8.00323 10.1429 9.98875 7.60834 12.4294 7.60834C14.8697 7.60834 16.8552 10.1429 16.8552 13.2582C16.8552 16.3735 14.8697 18.908 12.4294 18.908ZM1.33111 18.2706V9.42859H7.51919C6.98222 10.5442 6.67219 11.8559 6.67219 13.2582C6.67219 15.5987 7.53529 17.6869 8.87684 19.0324H1.9301C1.5998 19.0324 1.33111 18.6907 1.33111 18.2706ZM18.0699 19.0324H15.9818C17.3233 17.6869 18.1863 15.5987 18.1863 13.2582C18.1863 11.8559 17.8762 10.5443 17.3394 9.42859H18.6689V18.2706C18.6689 18.6907 18.4002 19.0324 18.0699 19.0324Z" fill="black"/>
<path d="M12.4296 8.96851C10.5746 8.96851 9.06543 10.8928 9.06543 13.2581C9.06543 15.6234 10.5746 17.5477 12.4296 17.5477C14.2845 17.5477 15.7936 15.6234 15.7936 13.2581C15.7936 10.8928 14.2845 8.96851 12.4296 8.96851ZM12.4296 15.8549C11.3085 15.8549 10.3965 14.6899 10.3965 13.2581C10.3965 11.8263 11.3085 10.6613 12.4296 10.6613C13.5505 10.6613 14.4625 11.8263 14.4625 13.2581C14.4625 14.6899 13.5505 15.8549 12.4296 15.8549Z" fill="black"/>
</svg>
