<svg width="20" height="20" viewBox="0 0 20 20" fill="none" xmlns="http://www.w3.org/2000/svg">
<path d="M12.9206 3.64353C13.1064 3.96549 13.0279 4.39809 12.7452 4.60977C12.6048 4.71493 12.4727 4.83898 12.3525 4.97856C12.2326 5.11786 12.074 5.18772 11.9152 5.18772C11.7605 5.18772 11.6056 5.12135 11.4864 4.98814C11.2449 4.71833 11.2411 4.2766 11.4779 4.00153C11.6591 3.79112 11.8591 3.60344 12.0723 3.44377C12.355 3.23214 12.7348 3.32158 12.9206 3.64353ZM18.2458 11.9009C18.1843 11.9723 12.1707 18.9569 12.1707 18.9569C11.5916 19.6295 10.8207 20 10 20C9.17935 20 8.40841 19.6295 7.82927 18.9569L1.7542 11.9009C-0.584735 9.18433 -0.584735 4.76409 1.7542 2.04754C2.89102 0.727163 4.40335 0 6.01265 0C7.4971 0 8.89919 0.618791 10 1.75107C11.1009 0.618791 12.5029 0 13.9873 0C15.5966 0 17.109 0.727163 18.2458 2.04749C20.5847 4.76409 20.5847 9.18433 18.2458 11.9009ZM17.3713 3.02456C16.4667 1.97395 15.2649 1.39535 13.9874 1.39535C12.7098 1.39535 11.508 1.97391 10.6034 3.02451C10.5576 3.07772 10.5165 3.14233 10.459 3.20019C10.1514 3.50967 9.79078 3.49414 9.54102 3.20019C9.48764 3.1373 9.44241 3.07772 9.39661 3.02451C8.49204 1.97395 7.29029 1.39535 6.01265 1.39535C4.73506 1.39535 3.53331 1.97391 2.62874 3.02451C0.753633 5.20237 0.753633 8.746 2.62874 10.9239C2.68453 10.9887 8.7038 17.9799 8.7038 17.9799C9.0507 18.3827 9.51102 18.6047 10 18.6047C10.489 18.6047 10.9493 18.3827 11.2962 17.9799L17.3713 10.9239C19.2463 8.74605 19.2463 5.20242 17.3713 3.02456ZM16.4967 4.00158C16.1304 3.57609 15.7018 3.2553 15.2229 3.04814C14.9067 2.91144 14.553 3.09247 14.4329 3.4527C14.3128 3.81288 14.4718 4.21581 14.788 4.3526C15.1001 4.48758 15.3807 4.69823 15.6222 4.9786C16.5696 6.07898 16.5696 7.86944 15.6222 8.96981L13.4733 11.4657C13.2364 11.7408 13.2402 12.1825 13.4817 12.4523C13.6009 12.5854 13.7557 12.6519 13.9105 12.6519C14.0692 12.6519 14.2279 12.582 14.3478 12.4427L16.4967 9.94684C17.9079 8.30772 17.9079 5.6407 16.4967 4.00158Z" fill="black"/>
</svg>
